# 3ds Max Wavefront OBJ Exporter v0.97b - (c)2007 guruware
# File Created: 17.03.2019 17:53:32

mtllib Puntuaciones.mtl

#
# object Box002
#

v  -10.1384 35.0452 -8.2923
v  -7.6669 44.4669 -8.2923
v  -7.6669 44.4669 -12.2293
v  -10.1384 35.0452 -12.2293
v  -4.3401 40.8723 -8.2923
v  -4.3401 40.8723 -12.2293
v  -1.0133 44.4669 -8.2923
v  -1.0133 44.4669 -12.2293
v  2.3134 40.8723 -8.2923
v  2.3134 40.8723 -12.2293
v  5.6402 44.4669 -8.2923
v  5.6402 44.4669 -12.2293
v  7.9549 34.2824 -8.2923
v  7.9549 34.2824 -12.2293
v  -7.9865 32.9064 -8.7796
v  -7.9865 32.9064 -11.7421
v  -6.0300 32.9064 -11.7421
v  -6.0300 32.9064 -8.7796
v  -3.5267 32.9064 -11.7421
v  -3.5267 32.9064 -8.7796
v  -1.0234 32.9064 -11.7421
v  -1.0234 32.9064 -8.7796
v  1.4799 32.9064 -11.7421
v  1.4799 32.9064 -8.7796
v  3.9832 32.9064 -11.7421
v  3.9832 32.9064 -8.7796
v  5.7249 32.9064 -11.7421
v  5.7249 32.9064 -8.7796
# 28 vertices

vn -0.7031 -0.2292 0.6732
vn -0.2011 0.8010 0.5638
vn -0.2011 0.8010 -0.5638
vn -0.7031 -0.2292 -0.6732
vn -0.2011 0.8010 0.5638
vn -0.0095 0.3597 0.9330
vn -0.0095 0.3597 -0.9330
vn -0.2011 0.8010 -0.5638
vn -0.0095 0.3597 0.9330
vn -0.0000 0.8113 0.5847
vn -0.0000 0.8113 -0.5847
vn -0.0095 0.3597 -0.9330
vn -0.0000 0.8113 0.5847
vn 0.0097 0.3597 0.9330
vn 0.0097 0.3597 -0.9330
vn -0.0000 0.8113 -0.5847
vn 0.0097 0.3597 0.9330
vn 0.2147 0.7983 0.5627
vn 0.2147 0.7983 -0.5627
vn 0.0097 0.3597 -0.9330
vn 0.2147 0.7983 0.5627
vn 0.6768 -0.3246 0.6608
vn 0.6768 -0.3246 -0.6608
vn 0.2147 0.7983 -0.5627
vn -0.2896 -0.7881 0.5432
vn -0.2896 -0.7881 -0.5432
vn 0.0000 -0.7218 -0.6921
vn 0.0000 -0.7218 0.6921
vn 0.0000 -0.7218 0.6921
vn 0.0000 -0.7218 -0.6921
vn 0.0000 -0.7284 -0.6852
vn 0.0000 -0.7284 0.6852
vn 0.0000 -0.7284 0.6852
vn 0.0000 -0.7284 -0.6852
vn 0.0000 -0.7218 -0.6921
vn 0.0000 -0.7218 0.6921
vn 0.0000 -0.7218 0.6921
vn 0.0000 -0.7218 -0.6921
vn 0.0000 -0.7284 -0.6852
vn 0.0000 -0.7284 0.6852
vn 0.0000 -0.7284 0.6852
vn 0.0000 -0.7284 -0.6852
vn 0.0000 -0.7218 -0.6921
vn 0.0000 -0.7218 0.6921
vn 0.0000 -0.7218 0.6921
vn 0.0000 -0.7218 -0.6921
vn 0.1963 -0.8348 -0.5144
vn 0.1963 -0.8348 0.5144
vn -0.7031 -0.2292 0.6732
vn -0.2896 -0.7881 0.5432
vn 0.0000 -0.7218 0.6921
vn -0.2011 0.8010 0.5638
vn -0.2011 0.8010 0.5638
vn 0.0000 -0.7218 0.6921
vn 0.0000 -0.7284 0.6852
vn -0.0095 0.3597 0.9330
vn -0.0095 0.3597 0.9330
vn 0.0000 -0.7284 0.6852
vn 0.0000 -0.7218 0.6921
vn -0.0000 0.8113 0.5847
vn -0.0000 0.8113 0.5847
vn 0.0000 -0.7218 0.6921
vn 0.0000 -0.7284 0.6852
vn 0.0097 0.3597 0.9330
vn 0.0097 0.3597 0.9330
vn 0.0000 -0.7284 0.6852
vn 0.0000 -0.7218 0.6921
vn 0.2147 0.7983 0.5627
vn 0.2147 0.7983 0.5627
vn 0.0000 -0.7218 0.6921
vn 0.1963 -0.8348 0.5144
vn 0.6768 -0.3246 0.6608
vn 0.6768 -0.3246 0.6608
vn 0.1963 -0.8348 0.5144
vn 0.1963 -0.8348 -0.5144
vn 0.6768 -0.3246 -0.6608
vn 0.6768 -0.3246 -0.6608
vn 0.1963 -0.8348 -0.5144
vn 0.0000 -0.7218 -0.6921
vn 0.2147 0.7983 -0.5627
vn 0.2147 0.7983 -0.5627
vn 0.0000 -0.7218 -0.6921
vn 0.0000 -0.7284 -0.6852
vn 0.0097 0.3597 -0.9330
vn 0.0097 0.3597 -0.9330
vn 0.0000 -0.7284 -0.6852
vn 0.0000 -0.7218 -0.6921
vn -0.0000 0.8113 -0.5847
vn -0.0000 0.8113 -0.5847
vn 0.0000 -0.7218 -0.6921
vn 0.0000 -0.7284 -0.6852
vn -0.0095 0.3597 -0.9330
vn -0.0095 0.3597 -0.9330
vn 0.0000 -0.7284 -0.6852
vn 0.0000 -0.7218 -0.6921
vn -0.2011 0.8010 -0.5638
vn -0.2011 0.8010 -0.5638
vn 0.0000 -0.7218 -0.6921
vn -0.2896 -0.7881 -0.5432
vn -0.7031 -0.2292 -0.6732
vn -0.7031 -0.2292 -0.6732
vn -0.2896 -0.7881 -0.5432
vn -0.2896 -0.7881 0.5432
vn -0.7031 -0.2292 0.6732
# 104 vertex normals

vt 0.7571 0.4935 0.0000
vt 0.6274 0.4935 0.0000
vt 0.6274 0.4393 0.0000
vt 0.7571 0.4393 0.0000
vt 0.7886 0.7841 0.0000
vt 0.8453 0.7841 0.0000
vt 0.8453 0.8462 0.0000
vt 0.7886 0.8462 0.0000
vt 0.8453 0.9895 0.0000
vt 0.7886 0.9895 0.0000
vt 0.7886 0.9274 0.0000
vt 0.8453 0.9274 0.0000
vt 0.9006 0.0005 0.0000
vt 0.9572 0.0005 0.0000
vt 0.9572 0.0626 0.0000
vt 0.9006 0.0626 0.0000
vt 0.8453 0.9179 0.0000
vt 0.7886 0.9179 0.0000
vt 0.7886 0.8558 0.0000
vt 0.8453 0.8558 0.0000
vt 0.6274 0.5065 0.0000
vt 0.7668 0.5065 0.0000
vt 0.7668 0.5604 0.0000
vt 0.6274 0.5604 0.0000
vt 0.6751 0.0482 0.0000
vt 0.6751 0.0072 0.0000
vt 0.7022 0.0072 0.0000
vt 0.7022 0.0482 0.0000
vt 0.7368 0.0072 0.0000
vt 0.7368 0.0482 0.0000
vt 0.7714 0.0072 0.0000
vt 0.7714 0.0482 0.0000
vt 0.8061 0.0072 0.0000
vt 0.8061 0.0482 0.0000
vt 0.8407 0.0072 0.0000
vt 0.8407 0.0482 0.0000
vt 0.8648 0.0072 0.0000
vt 0.8648 0.0482 0.0000
vt 0.6364 0.2397 0.0000
vt 0.6653 0.2110 0.0000
vt 0.6917 0.2110 0.0000
vt 0.6696 0.3666 0.0000
vt 0.7254 0.2110 0.0000
vt 0.7144 0.3182 0.0000
vt 0.7591 0.2110 0.0000
vt 0.7592 0.3666 0.0000
vt 0.7928 0.2110 0.0000
vt 0.8040 0.3182 0.0000
vt 0.8264 0.2110 0.0000
vt 0.8488 0.3666 0.0000
vt 0.8499 0.2110 0.0000
vt 0.8799 0.2295 0.0000
vt 0.8956 0.0550 0.0000
vt 0.8956 0.0005 0.0000
vt 0.6543 0.0728 0.0000
vt 0.6843 0.0542 0.0000
vt 0.7077 0.0542 0.0000
vt 0.6854 0.2098 0.0000
vt 0.7414 0.0542 0.0000
vt 0.7302 0.1615 0.0000
vt 0.7751 0.0542 0.0000
vt 0.7750 0.2098 0.0000
vt 0.8088 0.0542 0.0000
vt 0.8198 0.1615 0.0000
vt 0.8425 0.0542 0.0000
vt 0.8646 0.2098 0.0000
vt 0.8689 0.0542 0.0000
vt 0.8978 0.0830 0.0000
vt 0.6453 0.0005 0.0000
vt 0.6453 0.0550 0.0000
# 70 texture coords

o Box002
g Box002
usemtl Material__47
f 1/1/1 2/2/2 3/3/3 4/4/4 
f 2/5/5 5/6/6 6/7/7 3/8/8 
f 5/9/9 7/10/10 8/11/11 6/12/12 
f 7/13/13 9/14/14 10/15/15 8/16/16 
f 9/17/17 11/18/18 12/19/19 10/20/20 
f 11/21/21 13/22/22 14/23/23 12/24/24 
f 15/25/25 16/26/26 17/27/27 18/28/28 
f 18/28/29 17/27/30 19/29/31 20/30/32 
f 20/30/33 19/29/34 21/31/35 22/32/36 
f 22/32/37 21/31/38 23/33/39 24/34/40 
f 24/34/41 23/33/42 25/35/43 26/36/44 
f 26/36/45 25/35/46 27/37/47 28/38/48 
f 1/39/49 15/40/50 18/41/51 2/42/52 
f 2/42/53 18/41/54 20/43/55 5/44/56 
f 5/44/57 20/43/58 22/45/59 7/46/60 
f 7/46/61 22/45/62 24/47/63 9/48/64 
f 9/48/65 24/47/66 26/49/67 11/50/68 
f 11/50/69 26/49/70 28/51/71 13/52/72 
f 13/53/73 28/38/74 27/37/75 14/54/76 
f 14/55/77 27/56/78 25/57/79 12/58/80 
f 12/58/81 25/57/82 23/59/83 10/60/84 
f 10/60/85 23/59/86 21/61/87 8/62/88 
f 8/62/89 21/61/90 19/63/91 6/64/92 
f 6/64/93 19/63/94 17/65/95 3/66/96 
f 3/66/97 17/65/98 16/67/99 4/68/100 
f 4/69/101 16/26/102 15/25/103 1/70/104 
# 26 polygons

#
# object Box001
#

v  -24.7328 0.0000 -7.2440
v  -24.7328 0.0000 -13.0967
v  -16.0099 0.0000 -13.0967
v  -16.0099 0.0000 -7.2440
v  -24.7328 30.7422 -7.2440
v  -16.0099 30.7422 -7.2440
v  -16.0099 30.7422 -13.0967
v  -24.7328 30.7422 -13.0967
v  21.6726 0.0000 -7.2440
v  21.6726 0.0000 -13.0967
v  21.6726 30.7422 -13.0967
v  21.6726 30.7422 -7.2440
v  13.8441 0.0000 -13.0967
v  13.8441 30.7422 -13.0967
v  12.8236 0.0000 -13.0967
v  13.8441 0.0000 -7.2440
v  12.8236 0.0000 -7.2440
v  12.8236 29.2672 -7.2440
v  13.8441 30.7422 -7.2440
v  12.8236 29.2672 -13.0967
v  11.8651 0.0000 -13.0967
v  11.8651 30.7422 -13.0967
v  -13.9343 0.0000 -13.0967
v  11.8651 0.0000 -7.2440
v  -13.9343 0.0000 -7.2440
v  -13.9343 30.7422 -7.2440
v  11.8651 30.7422 -7.2440
v  -13.9343 30.7422 -13.0967
v  -14.7618 1.4089 -13.0967
v  -14.7618 30.7422 -13.0967
v  -14.7618 1.4089 -7.2440
v  -14.7618 30.7422 -7.2440
# 32 vertices

vn -0.5774 -0.5774 0.5774
vn -0.5774 -0.5774 -0.5774
vn 0.3203 -0.7116 -0.6253
vn 0.3203 -0.7116 0.6253
vn -0.5774 0.5774 0.5774
vn 0.0000 0.7071 0.7071
vn 0.0000 0.7071 -0.7071
vn -0.5774 0.5774 -0.5774
vn -0.5774 -0.5774 0.5774
vn 0.3203 -0.7116 0.6253
vn 0.0000 0.7071 0.7071
vn -0.5774 0.5774 0.5774
vn 0.5774 -0.5774 0.5774
vn 0.5774 -0.5774 -0.5774
vn 0.5774 0.5774 -0.5774
vn 0.5774 0.5774 0.5774
vn 0.5774 -0.5774 -0.5774
vn 0.0000 -0.7071 -0.7071
vn -0.3657 0.6977 -0.6160
vn 0.5774 0.5774 -0.5774
vn -0.5774 -0.5774 -0.5774
vn -0.5774 -0.5774 0.5774
vn -0.5774 0.5774 0.5774
vn -0.5774 0.5774 -0.5774
vn 0.0000 -0.7071 -0.7071
vn 0.0000 -0.7071 -0.7071
vn 0.0000 -0.7071 0.7071
vn 0.0000 -0.7071 0.7071
vn 0.0047 0.3244 0.9459
vn -0.3657 0.6977 0.6160
vn -0.3657 0.6977 -0.6160
vn 0.0047 0.3244 -0.9459
vn 0.0000 -0.7071 0.7071
vn 0.0000 -0.7071 0.7071
vn -0.3657 0.6977 0.6160
vn 0.0047 0.3244 0.9459
vn 0.0000 -0.7071 -0.7071
vn 0.0000 -0.7071 -0.7071
vn 0.3766 0.6938 -0.6139
vn 0.0047 0.3244 -0.9459
vn -0.3934 -0.6874 -0.6105
vn 0.0000 -0.7071 -0.7071
vn 0.0000 -0.7071 0.7071
vn -0.3934 -0.6874 0.6105
vn 0.0000 0.7071 0.7071
vn 0.3766 0.6938 0.6139
vn 0.3766 0.6938 -0.6139
vn 0.0000 0.7071 -0.7071
vn -0.3934 -0.6874 0.6105
vn 0.0000 -0.7071 0.7071
vn 0.3766 0.6938 0.6139
vn 0.0000 0.7071 0.7071
vn -0.3934 -0.6874 -0.6105
vn -0.0334 -0.3430 -0.9387
vn 0.0000 0.7071 -0.7071
vn 0.0000 0.7071 -0.7071
vn 0.0000 -0.7071 -0.7071
vn -0.3934 -0.6874 -0.6105
vn 0.0000 0.7071 -0.7071
vn 0.3766 0.6938 -0.6139
vn 0.0000 -0.7071 -0.7071
vn 0.0000 -0.7071 -0.7071
vn 0.0000 -0.7071 0.7071
vn 0.0000 -0.7071 0.7071
vn 0.3766 0.6938 0.6139
vn 0.0047 0.3244 0.9459
vn 0.0047 0.3244 -0.9459
vn 0.3766 0.6938 -0.6139
vn 0.0000 -0.7071 0.7071
vn 0.0000 -0.7071 0.7071
vn 0.0047 0.3244 0.9459
vn 0.3766 0.6938 0.6139
vn 0.0000 -0.7071 -0.7071
vn 0.0000 -0.7071 -0.7071
vn 0.0047 0.3244 -0.9459
vn -0.3657 0.6977 -0.6160
vn 0.0000 -0.7071 -0.7071
vn 0.5774 -0.5774 -0.5774
vn 0.5774 -0.5774 0.5774
vn 0.0000 -0.7071 0.7071
vn -0.3657 0.6977 0.6160
vn 0.5774 0.5774 0.5774
vn 0.5774 0.5774 -0.5774
vn -0.3657 0.6977 -0.6160
vn 0.0000 -0.7071 0.7071
vn 0.5774 -0.5774 0.5774
vn 0.5774 0.5774 0.5774
vn -0.3657 0.6977 0.6160
vn -0.0334 -0.3430 -0.9387
vn -0.3934 -0.6874 -0.6105
vn -0.3934 -0.6874 0.6105
vn -0.0334 -0.3430 0.9387
vn 0.0000 0.7071 0.7071
vn 0.0000 0.7071 0.7071
vn 0.0000 0.7071 -0.7071
vn 0.0000 0.7071 -0.7071
vn -0.0334 -0.3430 0.9387
vn -0.3934 -0.6874 0.6105
vn 0.0000 0.7071 0.7071
vn 0.0000 0.7071 0.7071
vn -0.0334 -0.3430 -0.9387
vn 0.3203 -0.7116 -0.6253
vn 0.0000 0.7071 -0.7071
vn 0.0000 0.7071 -0.7071
vn 0.3203 -0.7116 -0.6253
vn -0.0334 -0.3430 -0.9387
vn -0.0334 -0.3430 0.9387
vn 0.3203 -0.7116 0.6253
vn 0.0000 0.7071 0.7071
vn 0.0000 0.7071 0.7071
vn 0.0000 0.7071 -0.7071
vn 0.0000 0.7071 -0.7071
vn 0.3203 -0.7116 0.6253
vn -0.0334 -0.3430 0.9387
vn 0.0000 0.7071 0.7071
vn 0.0000 0.7071 0.7071
vn 0.3203 -0.7116 -0.6253
vn -0.5774 -0.5774 -0.5774
vn -0.5774 0.5774 -0.5774
vn 0.0000 0.7071 -0.7071
# 120 vertex normals

vt 0.2897 0.4938 0.0000
vt 0.3347 0.4933 0.0000
vt 0.3356 0.5553 0.0000
vt 0.2906 0.5558 0.0000
vt 0.2865 0.2753 0.0000
vt 0.2856 0.2133 0.0000
vt 0.3306 0.2127 0.0000
vt 0.3315 0.2747 0.0000
vt 0.0542 0.5590 0.0000
vt 0.0532 0.4970 0.0000
vt 0.3402 0.8647 0.0000
vt 0.3396 0.8231 0.0000
vt 0.5760 0.8200 0.0000
vt 0.5766 0.8616 0.0000
vt 0.3388 0.7674 0.0000
vt 0.5752 0.7643 0.0000
vt 0.3387 0.7602 0.0000
vt 0.2937 0.7680 0.0000
vt 0.2936 0.7608 0.0000
vt 0.6200 0.7510 0.0000
vt 0.6202 0.7637 0.0000
vt 0.5750 0.7516 0.0000
vt 0.0573 0.7711 0.0000
vt 0.0685 0.7637 0.0000
vt 0.3386 0.7534 0.0000
vt 0.5750 0.7503 0.0000
vt 0.5638 0.7572 0.0000
vt 0.3358 0.5700 0.0000
vt 0.2935 0.7540 0.0000
vt 0.2908 0.5706 0.0000
vt 0.2853 0.1986 0.0000
vt 0.2826 0.0152 0.0000
vt 0.3277 0.0146 0.0000
vt 0.3304 0.1980 0.0000
vt 0.0571 0.7571 0.0000
vt 0.0544 0.5737 0.0000
vt 0.3466 0.5640 0.0000
vt 0.5722 0.5610 0.0000
vt 0.5723 0.5669 0.0000
vt 0.2825 0.0027 0.0000
vt 0.3275 0.0021 0.0000
vt 0.2946 0.8237 0.0000
vt 0.6211 0.8194 0.0000
vt 0.0581 0.8268 0.0000
vt 0.3357 0.5584 0.0000
vt 0.2907 0.5590 0.0000
vt 0.2854 0.2045 0.0000
vt 0.3304 0.2039 0.0000
vt 0.2799 0.5649 0.0000
vt 0.0543 0.5678 0.0000
vt 0.5721 0.5521 0.0000
vt 0.3358 0.5686 0.0000
vt 0.2908 0.5692 0.0000
vt 0.5712 0.4901 0.0000
# 54 texture coords

o Box001
g Box001
usemtl Material__47
f 29/71/105 30/72/106 31/73/107 32/74/108 
f 33/75/109 34/76/110 35/77/111 36/78/112 
f 29/71/113 32/74/114 34/79/115 33/80/116 
f 37/81/117 38/82/118 39/83/119 40/84/120 
f 38/82/121 41/85/122 42/86/123 39/83/124 
f 30/72/125 29/71/126 33/75/127 36/78/128 
f 43/87/129 41/85/130 44/88/131 45/89/132 
f 46/90/133 47/91/134 42/86/135 48/92/136 
f 45/89/137 44/88/138 47/93/139 46/94/140 
f 43/87/141 49/95/142 50/96/143 48/97/144 
f 51/98/145 49/95/146 52/99/147 53/100/148 
f 54/101/149 55/102/150 50/103/151 56/104/152 
f 53/100/153 52/99/154 55/105/155 54/106/156 
f 51/98/157 57/107/158 58/108/159 56/109/160 
f 49/95/161 51/98/162 56/109/163 50/96/164 
f 49/95/165 43/87/166 45/89/167 52/99/168 
f 55/102/169 46/110/170 48/111/171 50/103/172 
f 52/99/173 45/89/174 46/94/175 55/105/176 
f 41/85/177 43/87/178 48/97/179 42/86/180 
f 41/85/181 38/82/182 37/112/183 44/88/184 
f 47/91/185 40/113/186 39/83/187 42/86/188 
f 44/88/189 37/112/190 40/114/191 47/93/192 
f 57/115/193 51/98/194 53/100/195 59/116/196 
f 60/117/197 54/101/198 56/104/199 58/118/200 
f 59/119/201 53/100/202 54/106/203 60/120/204 
f 57/107/205 31/73/206 35/121/207 58/108/208 
f 31/73/209 57/122/210 59/123/211 32/74/212 
f 34/76/213 60/117/214 58/118/215 35/77/216 
f 32/74/217 59/119/218 60/120/219 34/79/220 
f 31/73/221 30/72/222 36/124/223 35/121/224 
# 30 polygons

